<svg id="SvgjsSvg1034" width="100%" height="100%" xmlns="http://www.w3.org/2000/svg" version="1.1" xlink="http://www.w3.org/1999/xlink" xmlns:svgjs="http://svgjs.com/svgjs" preserveAspectRatio="xMidYMid meet" viewBox="0 0 300 32.33295822143555" overflow="visible">
    <defs id="SvgjsDefs1035">
    </defs>
    <g id="SvgjsG1036" transform="scale(0.7331736644019747)" opacity="1">
        <g id="SvgjsG1037" class="text" transform="translate(42.93000030517578, 43.5099983215332) scale(1)" light-content="false" fill="#484848">
            <path d="M-42.93 0L-33.73 0L-30.71 -26.6L-30.19 -33.57L-29.6 -33.57L-27.23 -27.16L-14.63 0L-1.92 0L2.98 -42.92L-6.22 -42.92L-8.57 -22.27L-9.15 -14.68L-9.74 -14.68L-12.26 -21.45L-22.1 -42.92L-38.04 -42.92Z M25.62 -6.42C24.74 -6.42 23.87 -6.5 23.01 -6.68C22.15 -6.86 21.28 -7.1 20.39 -7.43C19.5 -7.75 18.58 -8.13 17.62 -8.55C16.66 -8.98 15.64 -9.46 14.54 -9.99L13.9 -9.7L11.38 -2.2C12.53 -1.67 13.71 -1.23 14.92 -0.88C16.13 -0.53 17.34 -0.24 18.53 -0.03C19.72 0.19 20.88 0.34 22.01 0.44C23.15 0.54 24.2 0.59 25.18 0.59C28.01 0.59 30.58 0.23 32.9 -0.47C35.21 -1.17 37.19 -2.15 38.83 -3.41C40.47 -4.67 41.74 -6.17 42.62 -7.9C43.51 -9.62 43.96 -11.52 43.96 -13.59C43.96 -15.14 43.72 -16.49 43.24 -17.67C42.76 -18.84 42.13 -19.87 41.35 -20.76C40.57 -21.65 39.68 -22.43 38.68 -23.1C37.69 -23.77 36.67 -24.39 35.62 -24.95C34.58 -25.5 33.56 -26.04 32.56 -26.54C31.56 -27.05 30.68 -27.58 29.89 -28.12C29.11 -28.67 28.48 -29.27 28 -29.93C27.53 -30.58 27.29 -31.34 27.29 -32.2C27.29 -32.86 27.44 -33.46 27.74 -34C28.04 -34.54 28.46 -34.99 29 -35.36C29.54 -35.73 30.19 -36.02 30.96 -36.21C31.74 -36.41 32.59 -36.5 33.53 -36.5C34.09 -36.5 34.74 -36.46 35.46 -36.39C36.18 -36.31 36.95 -36.18 37.76 -36.01C38.57 -35.83 39.4 -35.61 40.25 -35.33C41.1 -35.06 41.94 -34.73 42.76 -34.34L43.28 -34.57L45.83 -42.04C44.84 -42.31 43.8 -42.54 42.73 -42.73C41.65 -42.92 40.6 -43.07 39.58 -43.18C38.55 -43.3 37.58 -43.38 36.65 -43.43C35.72 -43.48 34.91 -43.51 34.23 -43.51C31.5 -43.51 29.01 -43.17 26.76 -42.51C24.51 -41.85 22.59 -40.91 20.99 -39.7C19.39 -38.49 18.15 -37.04 17.27 -35.36C16.39 -33.68 15.95 -31.83 15.95 -29.79C15.95 -28.27 16.19 -26.93 16.67 -25.78C17.15 -24.63 17.78 -23.61 18.56 -22.72C19.34 -21.83 20.23 -21.05 21.22 -20.39C22.22 -19.73 23.23 -19.12 24.27 -18.56C25.3 -18 26.32 -17.47 27.32 -16.96C28.31 -16.46 29.2 -15.92 29.98 -15.35C30.76 -14.79 31.39 -14.17 31.87 -13.49C32.35 -12.82 32.59 -12.03 32.59 -11.13C32.59 -10.29 32.38 -9.58 31.97 -8.98C31.56 -8.38 31.03 -7.9 30.36 -7.51C29.7 -7.13 28.95 -6.86 28.12 -6.68C27.29 -6.5 26.46 -6.42 25.62 -6.42Z">
            </path>
        </g>
        <g id="SvgjsG1038" class="text" transform="translate(253.86000610351562, 43.509998168945316) scale(1)" light-content="false" fill="#080808">
            <path d="M-151.6 0L-141.64 0L-137.48 -27.33L-136.54 -35.54L-135.81 -35.54L-134.81 -27.45L-130.77 -0.85L-119.87 -0.85L-109.73 -27.51L-106.98 -35.54L-106.25 -35.54L-107.15 -27.28L-109.17 0L-96.17 0L-94.73 -42.92L-112.57 -42.92L-119.78 -23.2L-122.65 -14.44L-123.24 -14.44L-123.91 -23.17L-126.64 -42.92L-143.25 -42.92Z M-58.47 -9.37L-57.12 0L-44.55 0L-52.49 -42.92L-67.11 -42.92L-84.89 0L-75.17 0L-71.74 -9.37ZM-59.35 -15.79L-69.4 -15.79L-64.53 -29.03L-62.39 -35.65L-61.81 -35.65L-61.19 -29.03Z M-18.75 -15.47L-14.12 -15.47L-8.61 0L5.13 0L-4.45 -19.8C-3.43 -20.47 -2.36 -21.23 -1.23 -22.08C-0.09 -22.92 0.95 -23.87 1.89 -24.92C2.84 -25.96 3.62 -27.1 4.24 -28.34C4.85 -29.58 5.16 -30.93 5.16 -32.37C5.16 -33.74 4.85 -35.06 4.22 -36.33C3.6 -37.6 2.63 -38.72 1.32 -39.7C0.01 -40.67 -1.66 -41.46 -3.7 -42.04C-5.74 -42.63 -8.18 -42.92 -11.01 -42.92L-27.51 -42.92L-32.4 0L-20.5 0ZM-18.01 -21.88L-16.4 -35.92L-12.62 -35.92C-11.63 -35.92 -10.76 -35.77 -10.02 -35.46C-9.27 -35.16 -8.65 -34.74 -8.16 -34.19C-7.66 -33.64 -7.28 -33 -7.03 -32.26C-6.77 -31.51 -6.65 -30.69 -6.65 -29.79C-6.65 -28.78 -6.79 -27.85 -7.09 -27.01C-7.38 -26.17 -7.75 -25.42 -8.2 -24.74C-8.65 -24.07 -9.15 -23.49 -9.71 -23.01C-10.27 -22.53 -10.81 -22.16 -11.33 -21.88Z M29.18 0L34.07 -42.92L22.17 -42.92L17.28 0ZM45.29 0L59.59 0L45.88 -24.49L63.28 -42.92L52.38 -42.92L34.19 -21.68Z M72.03 0L99.98 0L102 -7L84.72 -7L86.07 -18.9L98.66 -18.9L100.48 -25.31L86.8 -25.31L88.03 -35.92L103.88 -35.92L105.9 -42.92L76.92 -42.92Z M137.39 0L141.49 -35.92L153.3 -35.92L155.32 -42.92L118.61 -42.92L116.59 -35.92L129.59 -35.92L125.49 0Z">
            </path>
        </g>
    </g>
</svg>
